<svg width="293" height="48" viewBox="0 0 293 48" fill="none" xmlns="http://www.w3.org/2000/svg">
<rect x="5.97818" y="6.10352e-05" width="280.972" height="1.19563" fill="white"/>
<rect x="7.17381" y="46.6295" width="279.777" height="1.19563" fill="white"/>
<rect x="286.951" y="1.19568" width="2.39125" height="2.39125" fill="white"/>
<rect width="2.39125" height="2.39125" transform="matrix(-1 0 0 1 5.97818 1.19568)" fill="white"/>
<rect x="289.342" y="41.847" width="2.39125" height="2.39125" fill="white"/>
<rect width="2.54993" height="2.2418" transform="matrix(-1 0 0 1 3.90453 42.2953)" fill="white"/>
<rect x="289.342" y="3.58691" width="2.39125" height="2.39125" fill="white"/>
<rect width="2.39125" height="2.39125" transform="matrix(-1 0 0 1 3.58693 3.58691)" fill="white"/>
<rect x="286.951" y="44.2383" width="2.39125" height="2.39125" fill="white"/>
<rect width="2.54993" height="2.2418" transform="matrix(-1 0 0 1 6.45457 44.5372)" fill="white"/>
<rect x="291.733" y="5.97821" width="1.19563" height="35.8688" fill="white"/>
<rect width="1.19563" height="35.8688" transform="matrix(-1 0 0 1 1.19568 5.97821)" fill="white"/>
</svg>
