<svg width="36" height="8" viewBox="0 0 36 8" fill="none" xmlns="http://www.w3.org/2000/svg">
<g clip-path="url(#clip0_2_67)">
<path d="M10.2542 6.40974V1.47442H11.156L13.1674 4.96021H12.6908L14.6646 1.47442H15.5665L15.5759 6.40974H14.5527L14.5433 3.12059H14.736L13.1553 5.8847H12.6653L11.0509 3.12059H11.2773V6.40974H10.2542ZM18.4237 6.46328C18.0092 6.46328 17.6466 6.37915 17.3359 6.21089C17.0252 6.04264 16.7845 5.81118 16.6136 5.51653C16.4428 5.22188 16.3573 4.88702 16.3573 4.51195C16.3573 4.13314 16.4409 3.79688 16.6081 3.50319C16.7754 3.20949 17.0054 2.97947 17.2981 2.81313C17.5908 2.64671 17.9215 2.5635 18.2903 2.5635C18.6465 2.5635 18.9671 2.64226 19.2521 2.7998C19.5372 2.95726 19.7628 3.18265 19.9291 3.47598C20.0955 3.76923 20.1787 4.12021 20.1787 4.52892C20.1787 4.57115 20.1771 4.61925 20.1739 4.67323C20.1709 4.72721 20.1671 4.77675 20.1626 4.82184H17.2119V4.18091H19.6053L19.1986 4.3726C19.2014 4.1768 19.164 4.0055 19.0864 3.85869C19.0089 3.7118 18.9028 3.59694 18.7681 3.5141C18.6333 3.43118 18.4758 3.38972 18.2955 3.38972C18.1153 3.38972 17.9567 3.43118 17.8197 3.5141C17.6827 3.59694 17.5766 3.7125 17.5013 3.86078C17.4261 4.00906 17.3884 4.18392 17.3884 4.38538V4.55701C17.3884 4.76412 17.4321 4.94556 17.5195 5.10133C17.6069 5.2571 17.7308 5.37714 17.8912 5.46145C18.0516 5.54569 18.2394 5.58781 18.4547 5.58781C18.6474 5.58781 18.8164 5.55722 18.9619 5.49604C19.1074 5.43487 19.2423 5.34167 19.3665 5.21645L19.9265 5.85132C19.7574 6.05057 19.5474 6.20237 19.2965 6.30674C19.0455 6.4111 18.7546 6.46328 18.4237 6.46328ZM22.368 6.46328C21.9384 6.46328 21.605 6.3501 21.3677 6.12375C21.1305 5.89733 21.0119 5.55825 21.0119 5.10651V1.77528H22.0645V5.08811C22.0645 5.24814 22.1043 5.3724 22.1841 5.4609C22.2638 5.5494 22.3731 5.59365 22.5119 5.59365C22.6803 5.59365 22.8235 5.54705 22.9416 5.45385L23.2204 6.22896C23.1143 6.30798 22.9859 6.36681 22.8353 6.40544C22.6847 6.444 22.5289 6.46328 22.368 6.46328ZM20.4488 3.54505V2.70087H22.9668V3.54505H20.4488ZM26.0402 6.40974V5.67054L25.9771 5.5042V4.18146C25.9771 3.9452 25.9084 3.76215 25.7709 3.6323C25.6336 3.50238 25.4223 3.43742 25.1369 3.43742C24.946 3.43742 24.7569 3.46871 24.5697 3.53128C24.3825 3.59378 24.2228 3.67912 24.0904 3.7873L23.7146 3.02189C23.9142 2.87236 24.1531 2.75859 24.4315 2.6806C24.7098 2.60253 24.9929 2.5635 25.2808 2.5635C25.8364 2.5635 26.2667 2.69951 26.5719 2.97154C26.8771 3.2435 27.0297 3.66741 27.0297 4.24327V6.40974H26.0402ZM24.9373 6.46328C24.655 6.46328 24.4126 6.41348 24.2102 6.3139C24.0078 6.21424 23.8528 6.07749 23.7452 5.90365C23.6377 5.72974 23.5839 5.53376 23.5839 5.31571C23.5839 5.09215 23.6365 4.89554 23.7417 4.72589C23.8468 4.55617 24.014 4.42313 24.2433 4.32677C24.4726 4.23034 24.7717 4.18213 25.1405 4.18213H26.101V4.82306H25.2572C25.0084 4.82306 24.838 4.86499 24.7462 4.94886C24.6543 5.03266 24.6084 5.13996 24.6084 5.27076C24.6084 5.40824 24.6607 5.51844 24.7653 5.60136C24.8699 5.6842 25.0137 5.72562 25.1967 5.72562C25.3734 5.72562 25.5322 5.68277 25.6728 5.59706C25.8134 5.51136 25.9149 5.38235 25.9771 5.21006L26.136 5.72078C26.0613 5.96211 25.9227 6.14619 25.7201 6.27302C25.5176 6.39986 25.2567 6.46328 24.9373 6.46328ZM29.6073 6.4928C29.2304 6.4928 28.8684 6.44014 28.5213 6.33483C28.1741 6.22944 27.8949 6.09302 27.6836 5.92557L28.054 5.06178C28.2545 5.21226 28.4937 5.33572 28.7717 5.43215C29.0497 5.52858 29.33 5.57679 29.6127 5.57679C29.8308 5.57679 30.0061 5.55417 30.1385 5.50893C30.271 5.46362 30.3684 5.40116 30.4306 5.32154C30.4928 5.24186 30.5239 5.15112 30.5239 5.04933C30.5239 4.9175 30.4739 4.81226 30.374 4.7336C30.2741 4.65495 30.1432 4.5909 29.9811 4.54148C29.8192 4.49205 29.6406 4.44523 29.4452 4.40102C29.25 4.35681 29.0543 4.30253 28.8581 4.2382C28.6619 4.17379 28.4829 4.08966 28.3208 3.98581C28.1589 3.88197 28.028 3.74474 27.9281 3.57413C27.8283 3.40353 27.7783 3.18662 27.7783 2.9234C27.7783 2.64344 27.8509 2.38764 27.996 2.156C28.1412 1.92436 28.3613 1.73903 28.6562 1.60001C28.9511 1.46091 29.3225 1.39136 29.7703 1.39136C30.0652 1.39136 30.357 1.42804 30.6457 1.50141C30.9344 1.57478 31.1889 1.68289 31.4091 1.82573L31.0684 2.69095C30.8508 2.5603 30.6309 2.46372 30.4087 2.40122C30.1864 2.33865 29.9705 2.30737 29.7609 2.30737C29.5482 2.30737 29.3752 2.33281 29.2418 2.38371C29.1084 2.4346 29.0117 2.50199 28.9517 2.58586C28.8918 2.66973 28.8618 2.76396 28.8618 2.86854C28.8618 2.99853 28.9117 3.10241 29.0116 3.18019C29.1116 3.25789 29.2425 3.32028 29.4044 3.36736C29.5665 3.41443 29.7455 3.46033 29.9417 3.50506C30.1379 3.54971 30.3336 3.60355 30.5288 3.66656C30.7242 3.7295 30.9028 3.8122 31.0647 3.91465C31.2267 4.01703 31.3577 4.15304 31.4576 4.32269C31.5575 4.49234 31.6075 4.70643 31.6075 4.96495C31.6075 5.24028 31.5342 5.49377 31.3877 5.7254C31.2411 5.95697 31.0201 6.14278 30.7247 6.28283C30.4294 6.42281 30.0569 6.4928 29.6073 6.4928ZM34.0091 6.46328C33.6245 6.46328 33.2826 6.37963 32.9834 6.21233C32.6843 6.04495 32.4486 5.81416 32.2764 5.51995C32.1042 5.22567 32.0181 4.88941 32.0181 4.51118C32.0181 4.13009 32.1045 3.79332 32.2772 3.50087C32.4499 3.20843 32.6853 2.9791 32.9833 2.81291C33.2814 2.64663 33.6233 2.5635 34.0091 2.5635C34.3948 2.5635 34.7379 2.64652 35.0384 2.81257C35.3388 2.97863 35.5742 3.20773 35.7445 3.49988C35.9149 3.79196 36.0001 4.1291 36.0001 4.51129C36.0001 4.89048 35.9151 5.22695 35.745 5.52072C35.5751 5.81442 35.3394 6.04495 35.0379 6.21233C34.7365 6.37963 34.3935 6.46328 34.0091 6.46328ZM34.0091 5.56269C34.1867 5.56269 34.3449 5.52101 34.4837 5.43766C34.6225 5.3543 34.7325 5.23308 34.8136 5.07401C34.8948 4.91486 34.9353 4.72732 34.9353 4.5114C34.9353 4.29152 34.8948 4.10365 34.8136 3.94781C34.7325 3.79196 34.6225 3.67236 34.4837 3.58901C34.3449 3.50565 34.1874 3.46397 34.0112 3.46397C33.8349 3.46397 33.6773 3.50565 33.5385 3.58901C33.3997 3.67236 33.289 3.79196 33.2065 3.94781C33.1241 4.10365 33.0829 4.29152 33.0829 4.5114C33.0829 4.72732 33.1241 4.91486 33.2065 5.07401C33.289 5.23308 33.3996 5.3543 33.5382 5.43766C33.6769 5.52101 33.8338 5.56269 34.0091 5.56269Z" fill="white"/>
<path fill-rule="evenodd" clip-rule="evenodd" d="M7.69092 4C7.69092 3.23963 7.49918 2.53784 7.1157 1.89461L6.54677 2.26102C6.86333 2.79201 7.02161 3.37167 7.02161 4C7.02161 4.91252 6.71149 5.6914 6.09124 6.33663C5.47107 6.98177 4.72248 7.30434 3.84546 7.30434C2.96844 7.30434 2.21985 6.98177 1.59968 6.33662C0.979427 5.6914 0.669301 4.91252 0.669301 4C0.669302 3.08747 0.979427 2.30859 1.59968 1.66337C2.21985 1.01822 2.96844 0.695652 3.84546 0.695652C4.33129 0.695652 4.79113 0.804659 5.22497 1.02267L5.5163 0.396378C4.99044 0.132126 4.43349 -2.34347e-07 3.84546 0C3.324 -7.30431e-08 2.82499 0.104841 2.34843 0.314524C1.88832 0.516971 1.48091 0.802689 1.12621 1.17168C0.771521 1.54064 0.496883 1.96442 0.302293 2.44301C0.100764 2.93866 2.22542e-07 3.45766 0 4C7.02765e-08 4.54234 0.100764 5.06133 0.302292 5.55698C0.496882 6.03557 0.771521 6.45935 1.12621 6.82831C1.48091 7.1973 1.88832 7.48302 2.34843 7.68547C2.82499 7.89515 3.324 7.99999 3.84546 7.99999C4.36692 7.99999 4.86592 7.89515 5.34248 7.68547C5.80259 7.48302 6.21 7.1973 6.56471 6.82831C6.9194 6.45935 7.19403 6.03557 7.38862 5.55698C7.59015 5.06133 7.69092 4.54234 7.69092 4Z" fill="white"/>
<path d="M3.17691 7.3043C4.56188 7.3043 5.68463 6.13635 5.68463 4.69561C5.68463 3.25487 4.56188 2.08691 3.17691 2.08691C1.79193 2.08691 0.669189 3.25487 0.669189 4.69561C0.669189 6.13635 1.79193 7.3043 3.17691 7.3043Z" stroke="white" stroke-width="0.621955"/>
<path d="M2.6195 7.18846C3.51204 7.18846 4.23559 6.40983 4.23559 5.44933C4.23559 4.48884 3.51204 3.71021 2.6195 3.71021C1.72696 3.71021 1.00342 4.48884 1.00342 5.44933C1.00342 6.40983 1.72696 7.18846 2.6195 7.18846Z" stroke="white" stroke-width="0.518296"/>
<path d="M6.40879 2.43473C6.932 2.43473 7.35615 1.96755 7.35615 1.39126C7.35615 0.814959 6.932 0.347778 6.40879 0.347778C5.88557 0.347778 5.46143 0.814959 5.46143 1.39126C5.46143 1.96755 5.88557 2.43473 6.40879 2.43473Z" stroke="white" stroke-width="0.621955"/>
</g>
<defs>
<clipPath id="clip0_2_67">
<rect width="36" height="8" fill="white"/>
</clipPath>
</defs>
</svg>
