<svg width="11" height="12" viewBox="0 0 11 12" fill="none" xmlns="http://www.w3.org/2000/svg">
<g clip-path="url(#clip0_2_52)">
<path d="M9.53211 0.0017584C6.96054 0.0113649 4.38653 -0.015484 1.81667 0.015306C1.8152 0.0155524 1.81374 0.016045 1.81228 0.0162913C1.59826 0.0643238 1.41573 0.205219 1.30543 0.39661L0.375682 2.00829C0.312966 2.11691 0.244394 2.22135 0.175578 2.32604C0.076747 2.47629 0.0176921 2.64946 0.00012207 2.83617L0.000610127 8.90452C0.00475861 9.31883 0.438885 9.80778 0.829086 9.80778H3.1476V12L5.58788 9.80778C6.17258 9.78561 7.00496 9.84596 7.5877 9.80778C7.72142 9.77576 7.84978 9.66023 7.95886 9.57181L10.1744 7.37832C10.3052 7.21255 10.3816 7.01032 10.4001 6.7938V0.915361C10.3647 0.424691 9.99064 0.0382138 9.53236 0.00200472L9.53211 0.0017584ZM9.21414 7.15171C9.23611 7.1389 9.25783 7.12535 9.27906 7.11131C9.25734 7.13323 9.23586 7.1554 9.21414 7.17757V7.15171ZM3.72131 9.43929H3.72619L3.72131 9.44446V9.43929Z" fill="white"/>
<path d="M9.7035 1.63479C9.66763 1.16678 9.31208 0.801734 8.87478 0.763062H2.3236C1.88435 0.801734 1.53978 1.17934 1.50464 1.64514L1.50513 7.95094C1.51391 8.35639 1.9334 8.81233 2.31408 8.81233H3.77044V10.3555L5.62408 8.81233H7.26639C7.50798 8.79607 7.68685 8.77217 7.86499 8.60369C8.41601 8.08272 8.91139 7.43909 9.4585 6.90728C9.59979 6.74003 9.68398 6.5378 9.70375 6.31242V1.63479H9.7035Z" fill="#3C3E3E"/>
</g>
<path d="M6.57703 2.40173C6.88107 2.40082 7.18338 2.40585 7.4823 2.42126C8.02238 2.44909 8.58218 2.6808 8.99597 3.02283C9.13429 3.13704 9.28573 3.27965 9.37195 3.43591V3.55212C9.26382 4.03008 9.05878 4.47233 8.80457 4.88806C8.55263 5.30005 8.32714 5.59008 7.83679 5.71716C7.05779 5.91884 6.67986 5.51615 6.13464 5.07263C6.039 4.99476 5.78715 4.80391 5.67078 4.79822H5.64929C5.53287 4.80388 5.28096 4.99483 5.18542 5.07263C4.64014 5.5162 4.26243 5.91896 3.48328 5.71716C2.99288 5.59007 2.76747 5.30012 2.5155 4.88806C2.26127 4.47229 2.05624 4.03012 1.94812 3.55212V3.43591C2.03433 3.27956 2.18571 3.13709 2.3241 3.02283C2.73791 2.68072 3.29762 2.4491 3.83777 2.42126C4.43601 2.39041 5.04785 2.40259 5.66003 2.41638L6.57703 2.40173ZM3.93542 3.70056C3.64842 3.65084 3.35704 3.7334 3.09363 3.84216L3.0946 3.86951C3.10684 3.90642 3.14585 3.96473 3.15808 3.98474C3.29233 4.20517 3.52069 4.44266 3.7655 4.5365C4.08739 4.65943 4.50522 4.59478 4.79968 4.4281C4.61871 4.08265 4.33791 3.77067 3.93542 3.70056ZM8.22644 3.84216C7.96307 3.73344 7.67159 3.65085 7.38464 3.70056C6.98226 3.77074 6.70133 4.0827 6.52039 4.4281C6.8148 4.59474 7.23272 4.65934 7.55457 4.5365C7.79934 4.44268 8.02773 4.20514 8.16199 3.98474C8.17421 3.96474 8.21319 3.90642 8.22546 3.86951L8.22644 3.84216Z" fill="white"/>
<defs>
<clipPath id="clip0_2_52">
<rect width="10.4" height="12" fill="white"/>
</clipPath>
</defs>
</svg>
