<svg width="36" height="8" viewBox="0 0 36 8" fill="none" xmlns="http://www.w3.org/2000/svg">
<g clip-path="url(#clip0_2_83)">
<path fill-rule="evenodd" clip-rule="evenodd" d="M14.3328 1L13.0025 1.16667V4.43333C13.0025 5.12369 13.246 5.71294 13.7331 6.2011C14.2201 6.68926 14.8081 6.93333 15.4969 6.93333V5.6C15.1755 5.6 14.9011 5.4861 14.6738 5.25829C14.4465 5.03049 14.3328 4.7555 14.3328 4.43333V3.26667H15.4969V1.93333H14.3328V1ZM2.7545 6.43333L1.53102 4.08123L1.3269 6.91468L0 6.81866L0.377157 1.58333H1.73199L3.30753 4.61226L4.88306 1.58333H6.2379L6.61506 6.81866L5.28816 6.91468L5.08404 4.08123L3.86056 6.43333H2.7545ZM9.70986 7C9.02105 7 8.43311 6.75592 7.94604 6.26777C7.45898 5.77961 7.21545 5.19036 7.21545 4.5V4.1C7.21545 3.40714 7.46307 2.825 7.95831 2.35358C8.4394 1.89564 9.02325 1.66667 9.70986 1.66667C10.3965 1.66667 10.9803 1.89564 11.4614 2.35358C11.9567 2.825 12.2043 3.40714 12.2043 4.1V4.9H8.61257C8.66865 5.05631 8.76004 5.19797 8.88675 5.32496C9.11404 5.55276 9.38841 5.66667 9.70986 5.66667C10.1095 5.66667 10.4582 5.54343 10.756 5.29695L11.8208 6.12698C11.5461 6.40084 11.2309 6.61317 10.8752 6.76397C10.504 6.92132 10.1156 7 9.70986 7ZM20.652 1.93333L18.5235 1.93333C17.8346 1.93333 17.2467 2.17741 16.7596 2.66557C16.2726 3.15372 16.029 3.74298 16.029 4.43333C16.029 5.12369 16.2726 5.71295 16.7596 6.2011C17.2467 6.68926 17.8346 6.93333 18.5235 6.93333H20.652V1.93333ZM24.377 1.93333L26.5056 1.93333C27.1944 1.93333 27.7823 2.17741 28.2694 2.66557C28.7565 3.15372 29 3.74298 29 4.43333C29 5.12369 28.7565 5.71295 28.2694 6.2011C27.7823 6.68926 27.1944 6.93333 26.5056 6.93333H24.377V1.93333ZM21.7496 1.96667H23.2795V6.9H21.7496V1.96667ZM8.61655 3.7H10.8032C10.7487 3.55871 10.6627 3.43217 10.5452 3.32036C10.3209 3.10679 10.0424 3 9.70986 3C9.37731 3 9.09884 3.10679 8.87448 3.32036C8.75702 3.43217 8.67104 3.55871 8.61655 3.7ZM18.5235 5.6H19.3217V3.26667H18.5235C18.202 3.26667 17.9276 3.38057 17.7003 3.60838C17.473 3.83618 17.3594 4.11117 17.3594 4.43333C17.3594 4.7555 17.473 5.03049 17.7003 5.25829C17.9276 5.4861 18.202 5.6 18.5235 5.6ZM26.5056 5.6H25.7074V3.26667H26.5056C26.827 3.26667 27.1014 3.38057 27.3287 3.60838C27.556 3.83618 27.6696 4.11117 27.6696 4.43333C27.6696 4.7555 27.556 5.03049 27.3287 5.25829C27.1014 5.4861 26.827 5.6 26.5056 5.6Z" fill="white"/>
</g>
<defs>
<clipPath id="clip0_2_83">
<rect width="29" height="6" fill="white" transform="translate(0 1)"/>
</clipPath>
</defs>
</svg>
